# xmcd
#
# Track frame offsets:
#	150
#	26073
#	51330
#	68118
#	91533
#	121409
#	142146
#	158447
#	176960
#	216524
#
# Disc length: 3127 seconds
#
# Revision: 1
# Processed by: cddbd v1.5.2PL0 Copyright (c) Steve Scherf et al.
# Submitted via: audiograbber 1.83.01
#
DISCID=900c350a
DTITLE=Gail Anderson - Rhythm and Style
DYEAR=2008
DGENRE=
TTITLE0=Soul Shadows
TTITLE1=How intensitive
TTITLE2=Killing me softly
TTITLE3=Steamy windows
TTITLE4=Mista
TTITLE5=Stand by me
TTITLE6=Just one of those things
TTITLE7=Ride like the wind
TTITLE8=Summertime
TTITLE9=Falling back in love with you
EXTD=
EXTT0=
EXTT1=
EXTT2=
EXTT3=
EXTT4=
EXTT5=
EXTT6=
EXTT7=
EXTT8=
EXTT9=
PLAYORDER=
